<?xml version="1.0" standalone="no"?>
<!DOCTYPE svg PUBLIC "-//W3C//DTD SVG 20010904//EN"
 "http://www.w3.org/TR/2001/REC-SVG-20010904/DTD/svg10.dtd">
<svg version="1.0" xmlns="http://www.w3.org/2000/svg"
 width="360.000000pt" height="360.000000pt" viewBox="0 0 360.000000 360.000000"
 preserveAspectRatio="xMidYMid meet">
<metadata>
Created by potrace 1.11, written by Peter Selinger 2001-2013
</metadata>
<g transform="translate(0.000000,360.000000) scale(0.100000,-0.100000)"
fill="#000000" stroke="none">
<path d="M987 3463 c-17 -16 -3 -23 43 -23 38 0 50 4 50 15 0 11 -11 15 -43
15 -24 0 -47 -3 -50 -7z"/>
<path d="M1780 3455 c0 -13 9 -16 48 -13 26 2 47 8 47 13 0 6 -21 11 -47 13
-39 3 -48 0 -48 -13z"/>
<path d="M746 3452 c-3 -4 4 -16 15 -25 22 -19 25 -10 5 16 -8 10 -17 14 -20
9z"/>
<path d="M2830 3449 c0 -8 10 -20 23 -28 l22 -14 -20 24 c-11 13 -21 26 -22
28 -2 2 -3 -2 -3 -10z"/>
<path d="M2280 3437 c0 -7 9 -18 20 -25 20 -12 21 -12 4 13 -18 28 -24 31 -24
12z"/>
<path d="M1235 3420 c-7 -12 -11 -11 48 -13 32 -1 47 2 47 11 0 15 -86 17 -95
2z"/>
<path d="M2030 3418 c0 -7 9 -19 21 -26 19 -12 19 -11 10 7 -14 26 -31 36 -31
19z"/>
<path d="M1540 3410 c0 -5 9 -14 20 -20 19 -10 20 -10 8 9 -13 22 -28 28 -28
11z"/>
<path d="M2580 3388 c0 -7 9 -19 21 -26 19 -12 19 -11 10 7 -14 26 -31 36 -31
19z"/>
<path d="M817 3338 c8 -44 13 -48 13 -10 0 17 -4 34 -10 37 -6 4 -7 -6 -3 -27z"/>
<path d="M887 3333 c8 -52 13 -54 13 -5 0 23 -4 42 -9 42 -6 0 -7 -17 -4 -37z"/>
<path d="M1143 3325 c0 -27 2 -38 4 -22 2 15 2 37 0 50 -2 12 -4 0 -4 -28z"/>
<path d="M1604 3358 c-4 -6 -3 -8 4 -4 7 4 12 -9 15 -36 l4 -43 1 48 c2 45 -9
60 -24 35z"/>
<path d="M2107 3333 c8 -52 13 -54 13 -5 0 23 -4 42 -9 42 -6 0 -7 -17 -4 -37z"/>
<path d="M2425 3360 c3 -5 8 -10 11 -10 2 0 4 5 4 10 0 6 -5 10 -11 10 -5 0
-7 -4 -4 -10z"/>
<path d="M2503 3325 c0 -27 2 -38 4 -22 2 15 2 37 0 50 -2 12 -4 0 -4 -28z"/>
<path d="M2725 3360 c-3 -5 -1 -10 4 -10 6 0 11 5 11 10 0 6 -2 10 -4 10 -3 0
-8 -4 -11 -10z"/>
<path d="M704 3339 c-11 -18 13 -34 31 -19 8 7 15 16 15 21 0 13 -38 11 -46
-2z"/>
<path d="M1053 3339 c-25 -9 -30 -24 -12 -35 13 -7 43 19 38 34 -3 6 -13 6
-26 1z"/>
<path d="M1758 3342 c-19 -4 -24 -27 -9 -36 10 -7 35 19 29 32 -1 4 -11 6 -20
4z"/>
<path d="M1853 3340 c-24 -10 -30 -25 -14 -35 10 -6 41 21 41 36 0 5 -1 9 -2
8 -2 0 -13 -4 -25 -9z"/>
<path d="M2248 3339 c-10 -6 -18 -14 -18 -19 0 -14 37 -12 46 1 10 17 -9 29
-28 18z"/>
<path d="M2791 3336 c-7 -9 -8 -17 -2 -20 14 -9 41 4 41 20 0 18 -24 18 -39 0z"/>
<path d="M947 3333 c-4 -3 -7 -12 -7 -20 0 -20 28 -15 40 7 9 17 8 20 -8 20
-10 0 -22 -3 -25 -7z"/>
<path d="M1692 3320 c0 -14 2 -19 5 -12 2 6 2 18 0 25 -3 6 -5 1 -5 -13z"/>
<path d="M2432 3315 c0 -16 2 -22 5 -12 2 9 2 23 0 30 -3 6 -5 -1 -5 -18z"/>
<path d="M2008 3322 c-18 -4 -32 -29 -19 -36 11 -7 45 19 40 30 -2 5 -11 8
-21 6z"/>
<path d="M1208 3299 c-25 -14 -22 -31 4 -27 13 2 24 11 26 21 4 19 -5 21 -30
6z"/>
<path d="M1303 3303 c-7 -2 -13 -11 -13 -20 0 -20 34 -12 38 10 3 17 -3 20
-25 10z"/>
<path d="M1507 3303 c-14 -13 -6 -24 15 -21 27 4 36 28 11 28 -11 0 -23 -3
-26 -7z"/>
<path d="M2541 3286 c-7 -9 -8 -17 -2 -20 14 -9 41 4 41 20 0 18 -24 18 -39 0z"/>
<path d="M1950 3156 c0 -12 11 -15 50 -13 62 3 60 21 -3 25 -37 2 -47 0 -47
-12z"/>
<path d="M740 3147 c0 -10 6 -17 14 -17 8 0 17 -6 19 -12 3 -8 6 -8 6 -2 1 6
-8 19 -19 29 -18 16 -20 16 -20 2z"/>
<path d="M1150 3138 c0 -9 7 -19 16 -22 25 -10 27 -1 4 19 -17 15 -20 16 -20
3z"/>
<path d="M1530 3136 c0 -8 7 -16 15 -20 13 -4 14 -2 5 14 -13 23 -20 26 -20 6z"/>
<path d="M2510 3127 c0 -7 9 -18 20 -25 11 -7 20 -9 20 -4 0 4 -9 15 -20 25
-14 11 -20 13 -20 4z"/>
<path d="M1767 3113 c-15 -15 -4 -20 43 -22 38 0 50 3 50 14 0 11 -12 15 -43
15 -24 0 -47 -3 -50 -7z"/>
<path d="M970 3093 c0 -13 8 -23 21 -26 20 -5 20 -5 3 16 -11 12 -20 24 -21
26 -2 2 -3 -5 -3 -16z"/>
<path d="M1310 3101 c0 -5 7 -12 16 -15 24 -9 28 -7 14 9 -14 17 -30 20 -30 6z"/>
<path d="M2290 3102 c0 -16 39 -51 57 -52 6 0 15 5 19 12 5 8 2 9 -11 4 -13
-5 -25 1 -41 21 -13 15 -23 22 -24 15z"/>
<path d="M2750 3082 c0 -12 19 -26 26 -19 2 2 -2 10 -11 17 -9 8 -15 8 -15 2z"/>
<path d="M810 3060 c0 -5 5 -10 11 -10 5 0 7 5 4 10 -3 6 -8 10 -11 10 -2 0
-4 -4 -4 -10z"/>
<path d="M887 3033 c8 -52 13 -54 13 -5 0 23 -4 42 -9 42 -6 0 -7 -17 -4 -37z"/>
<path d="M1053 3030 c0 -25 2 -35 4 -22 2 12 2 32 0 45 -2 12 -4 2 -4 -23z"/>
<path d="M1590 3060 c0 -5 5 -10 10 -10 6 0 10 5 10 10 0 6 -4 10 -10 10 -5 0
-10 -4 -10 -10z"/>
<path d="M1665 3060 c-3 -5 -1 -10 4 -10 6 0 11 5 11 10 0 6 -2 10 -4 10 -3 0
-8 -4 -11 -10z"/>
<path d="M2095 3060 c-3 -5 -2 -10 4 -10 5 0 12 -15 14 -32 3 -26 4 -23 4 10
-1 41 -9 53 -22 32z"/>
<path d="M2415 3060 c-3 -5 -2 -10 4 -10 5 0 13 5 16 10 3 6 2 10 -4 10 -5 0
-13 -4 -16 -10z"/>
<path d="M2585 3060 c-3 -5 -1 -10 4 -10 6 0 11 5 11 10 0 6 -2 10 -4 10 -3 0
-8 -4 -11 -10z"/>
<path d="M2650 3060 c-13 -8 -12 -10 3 -10 9 0 17 5 17 10 0 12 -1 12 -20 0z"/>
<path d="M2815 3060 c-3 -5 -1 -10 4 -10 6 0 11 5 11 10 0 6 -2 10 -4 10 -3 0
-8 -4 -11 -10z"/>
<path d="M712 3048 c-17 -17 -15 -28 7 -28 19 0 35 23 24 34 -9 9 -18 7 -31
-6z"/>
<path d="M1123 3043 c-7 -2 -13 -11 -13 -20 0 -20 34 -12 38 10 3 17 -3 20
-25 10z"/>
<path d="M1498 3039 c-25 -14 -22 -31 4 -27 13 2 24 11 26 21 4 19 -5 21 -30
6z"/>
<path d="M1928 3042 c-19 -4 -24 -27 -9 -36 10 -7 35 19 29 32 -1 4 -11 6 -20
4z"/>
<path d="M2023 3039 c-13 -5 -23 -13 -23 -19 0 -16 40 -12 47 5 8 21 2 24 -24
14z"/>
<path d="M822 3015 c0 -16 2 -22 5 -12 2 9 2 23 0 30 -3 6 -5 -1 -5 -18z"/>
<path d="M1672 3015 c0 -16 2 -22 5 -12 2 9 2 23 0 30 -3 6 -5 -1 -5 -18z"/>
<path d="M2432 3015 c0 -16 2 -22 5 -12 2 9 2 23 0 30 -3 6 -5 -1 -5 -18z"/>
<path d="M2591 3024 c0 -11 3 -14 6 -6 3 7 2 16 -1 19 -3 4 -6 -2 -5 -13z"/>
<path d="M2661 3024 c0 -11 3 -14 6 -6 3 7 2 16 -1 19 -3 4 -6 -2 -5 -13z"/>
<path d="M2477 3023 c-4 -3 -7 -12 -7 -20 0 -20 28 -15 40 7 9 17 8 20 -8 20
-10 0 -22 -3 -25 -7z"/>
<path d="M1273 2995 c-3 -9 -2 -19 1 -23 8 -8 38 10 44 26 6 18 -38 14 -45 -3z"/>
<path d="M2258 2999 c-25 -14 -22 -31 4 -27 13 2 24 11 26 21 4 19 -5 21 -30
6z"/>
<path d="M933 2985 c-3 -9 -3 -18 0 -22 10 -10 37 6 37 22 0 20 -29 20 -37 0z"/>
<path d="M1735 2987 c-24 -18 -11 -41 16 -27 10 6 19 17 19 25 0 19 -11 19
-35 2z"/>
<path d="M1833 2989 c-26 -9 -30 -24 -10 -32 19 -7 40 8 35 25 -2 12 -9 13
-25 7z"/>
<path d="M2710 2980 c-12 -7 -12 -12 -3 -21 9 -9 16 -9 28 1 29 24 9 42 -25
20z"/>
<path d="M1100 2860 c0 -5 23 -10 50 -10 28 0 50 5 50 10 0 6 -22 10 -50 10
-27 0 -50 -4 -50 -10z"/>
<path d="M1708 2850 c-163 -26 -316 -135 -382 -274 -47 -97 -52 -116 -29 -116
11 0 31 23 53 61 43 75 127 155 204 192 155 76 368 76 526 0 74 -35 176 -141
215 -220 33 -68 62 -82 57 -28 -8 93 -130 259 -232 318 -107 61 -274 89 -412
67z"/>
<path d="M790 2838 c0 -9 5 -20 11 -23 17 -11 18 -2 3 19 -12 17 -14 17 -14 4z"/>
<path d="M855 2760 c3 -5 8 -10 11 -10 2 0 4 5 4 10 0 6 -5 10 -11 10 -5 0 -7
-4 -4 -10z"/>
<path d="M1258 2730 c2 -22 6 -40 8 -40 2 0 4 18 4 40 0 22 -3 40 -8 40 -4 0
-6 -18 -4 -40z"/>
<path d="M1060 2735 c-10 -12 -9 -16 3 -21 20 -7 37 3 37 22 0 18 -24 18 -40
-1z"/>
<path d="M1163 2743 c-17 -6 -17 -33 0 -33 14 0 37 20 37 32 0 9 -18 9 -37 1z"/>
<path d="M768 2732 c-22 -4 -24 -32 -3 -32 9 0 18 7 22 15 7 19 3 22 -19 17z"/>
<path d="M862 2715 c0 -16 2 -22 5 -12 2 9 2 23 0 30 -3 6 -5 -1 -5 -18z"/>
<path d="M1332 2715 c0 -16 2 -22 5 -12 2 9 2 23 0 30 -3 6 -5 -1 -5 -18z"/>
<path d="M207 2597 c-3 -7 -3 -25 0 -39 4 -20 0 -29 -19 -39 -12 -6 -27 -18
-31 -25 -10 -17 -31 -18 -73 -2 -27 9 -37 9 -58 -6 -21 -13 -26 -24 -26 -57 0
-24 4 -38 10 -34 23 14 28 -7 10 -38 -11 -18 -20 -38 -20 -46 0 -19 34 12 61
56 20 33 22 33 94 33 43 0 77 -5 81 -11 3 -6 -7 -36 -22 -67 -26 -50 -29 -68
-29 -147 0 -72 4 -99 22 -135 36 -75 35 -74 79 -51 42 22 566 340 573 347 8 8
-90 94 -131 115 -78 40 -121 50 -214 50 l-91 0 -38 54 c-20 30 -40 55 -42 55
-3 0 -18 -8 -34 -17 -26 -16 -29 -16 -47 0 -22 20 -48 22 -55 4z"/>
<path d="M1343 2433 c-7 -2 -13 -11 -13 -19 0 -8 -6 -14 -14 -14 -24 0 -50
-101 -43 -166 5 -53 27 -101 27 -61 0 19 46 35 61 20 5 -5 13 -36 19 -68 6
-33 18 -75 27 -92 17 -34 47 -44 56 -19 5 13 -76 396 -88 416 -7 11 -13 11
-32 3z"/>
<path d="M2251 2363 c-13 -49 -91 -413 -91 -425 0 -4 51 -9 113 -10 l112 -2
-110 -6 -110 -6 85 -4 85 -4 -70 -5 -70 -6 29 -22 c16 -13 26 -23 22 -23 -4 0
2 -9 12 -20 10 -11 31 -47 47 -80 l29 -60 168 0 168 0 0 185 0 185 -161 0
c-104 0 -158 -3 -154 -10 3 -5 1 -10 -4 -10 -15 0 -14 23 4 95 8 33 14 76 14
95 1 52 -24 124 -43 128 -9 2 -16 9 -16 17 0 12 -21 25 -40 25 -5 0 -14 -17
-19 -37z m132 -370 c-7 -2 -21 -2 -30 0 -10 3 -4 5 12 5 17 0 24 -2 18 -5z"/>
<path d="M904 2180 c-12 -5 -25 -13 -28 -19 -11 -18 -7 -1070 4 -1091 14 -26
43 -32 134 -28 l75 3 12 -50 c6 -27 14 -101 17 -164 l5 -114 -24 6 c-13 4
-237 7 -496 7 l-473 0 0 45 0 45 -65 0 -65 0 0 -130 0 -130 560 0 560 0 0
-275 0 -275 705 0 705 0 0 275 0 275 56 0 c64 0 65 -7 -13 90 l-43 52 0 99 c0
66 -5 112 -15 136 -18 42 -20 40 94 102 73 40 74 40 88 21 18 -25 38 -25 63 0
20 20 20 33 20 560 l0 539 -30 16 c-23 12 -66 15 -198 15 l-170 0 -10 -40 -10
-40 162 -2 161 -3 3 -217 3 -218 -176 0 c-110 0 -175 -4 -175 -10 0 -6 67 -10
180 -10 l180 0 0 -240 0 -240 -37 1 c-33 1 -34 2 -13 8 l25 7 3 207 2 207
-167 -2 -168 -3 -3 -79 c-2 -44 -15 -134 -28 -200 -83 -399 -71 -505 73 -686
l28 -34 -33 23 c-64 45 -189 176 -225 238 -21 33 -46 95 -57 137 -16 64 -18
88 -10 158 6 46 10 117 10 159 0 74 -21 172 -40 184 -5 3 -63 -2 -129 -12
-113 -16 -125 -16 -213 0 -51 10 -119 20 -150 23 l-58 7 1 88 c1 107 -9 129
-57 129 -34 0 -40 -6 -46 -44 -3 -18 2 -20 45 -17 27 1 47 -2 47 -8 0 -5 -23
-11 -52 -13 l-52 -3 -12 -70 c-6 -38 -10 -72 -8 -74 2 -2 -25 -14 -60 -26 -56
-20 -147 -72 -160 -93 -2 -4 -49 -6 -105 -4 l-101 3 0 365 0 364 139 0 c77 0
142 3 145 8 2 4 -2 22 -9 40 l-14 32 -143 -1 c-79 0 -153 -4 -164 -9z"/>
<path d="M964 2031 c-2 -2 -4 -143 -4 -313 l0 -309 97 3 97 3 17 55 c9 30 15
59 12 63 -3 5 -17 8 -31 7 -55 -4 -65 3 -13 9 30 3 56 12 59 19 3 9 -20 11
-102 8 -60 -3 -108 -1 -111 5 -4 5 40 9 109 9 71 0 116 4 116 10 0 6 -27 10
-60 10 -33 0 -60 4 -60 10 0 6 28 10 65 10 37 0 65 4 65 10 0 6 -47 10 -120
10 -73 0 -120 4 -120 10 0 6 51 10 132 10 103 0 129 3 120 12 -17 17 -15 28 5
28 11 0 14 3 7 10 -5 5 -68 11 -139 13 l-130 3 143 2 c110 1 143 5 139 15 -2
6 -11 12 -20 12 -8 0 -19 4 -23 8 -4 4 7 7 24 7 18 0 32 5 32 10 0 6 -55 10
-145 10 -90 0 -145 4 -145 10 0 6 57 10 150 10 93 0 150 4 150 10 0 6 -13 10
-30 10 -16 0 -30 5 -30 10 0 6 6 10 13 9 6 -1 25 -1 40 0 41 2 23 21 -20 21
-45 0 -40 7 7 12 19 1 36 8 38 13 1 6 -60 12 -160 15 l-163 6 173 2 c106 1
172 6 172 12 0 9 -53 15 -87 11 -7 -1 -13 3 -13 10 0 7 13 10 35 7 24 -3 35 0
35 9 0 10 -35 13 -155 13 -97 0 -155 4 -155 10 0 6 57 10 150 10 93 0 150 4
150 10 0 6 -6 11 -12 11 -38 4 -300 3 -304 0z m231 -71 c-3 -6 -52 -10 -111
-10 -63 0 -104 4 -104 10 0 6 44 10 111 10 71 0 108 -4 104 -10z m-47 -77
c-32 -2 -84 -2 -115 0 -32 2 -6 3 57 3 63 0 89 -1 58 -3z m42 -33 c0 -6 -42
-10 -105 -10 -63 0 -105 4 -105 10 0 6 42 10 105 10 63 0 105 -4 105 -10z m6
-78 c-8 -13 -203 -15 -211 -3 -4 8 30 11 105 11 61 0 109 -4 106 -8z m0 -73
c3 -5 -44 -9 -106 -9 -74 0 -109 3 -105 10 8 13 203 12 211 -1z m-126 -79 c0
-5 -20 -10 -45 -10 -25 0 -45 5 -45 10 0 6 20 10 45 10 25 0 45 -4 45 -10z
m-1 -74 c-8 -8 -78 -10 -85 -3 -4 4 14 7 41 7 27 0 46 -2 44 -4z"/>
<path d="M1440 1976 c0 -25 12 -46 26 -46 17 0 18 14 4 41 -12 22 -30 25 -30
5z"/>
<path d="M2111 1908 c-40 -65 -42 -72 -12 -38 17 19 31 40 31 47 0 18 -3 16
-19 -9z"/>
<path d="M1454 1909 c-3 -5 2 -12 11 -15 12 -5 13 -9 4 -14 -19 -12 -2 -60 21
-60 21 0 27 -16 9 -22 -9 -3 -7 -20 6 -58 12 -35 19 -81 18 -127 0 -40 1 -73
4 -73 3 0 17 7 33 16 41 25 80 91 80 136 0 33 -7 46 -49 88 -27 27 -59 67 -72
89 -21 38 -53 58 -65 40z"/>
<path d="M1440 1830 c0 -5 5 -10 11 -10 5 0 7 5 4 10 -3 6 -8 10 -11 10 -2 0
-4 -4 -4 -10z"/>
<path d="M1440 1790 c0 -5 7 -10 15 -10 8 0 15 5 15 10 0 6 -7 10 -15 10 -8 0
-15 -4 -15 -10z"/>
<path d="M1442 1762 c-12 -2 -20 -8 -17 -13 8 -12 65 -12 65 0 0 12 -20 18
-48 13z"/>
<path d="M2006 1711 c-4 -7 -5 -15 -2 -18 9 -9 19 4 14 18 -4 11 -6 11 -12 0z"/>
<path d="M3315 1412 c-148 -69 -196 -244 -104 -380 16 -24 29 -46 29 -50 0 -4
-23 -62 -52 -129 l-52 -123 -65 0 c-54 0 -62 2 -49 13 32 24 31 53 -2 81 -38
31 -50 33 -57 7 -3 -11 -23 -27 -45 -36 -38 -15 -39 -17 -31 -48 16 -64 10
-143 -14 -176 -23 -30 -23 -36 -23 -296 l0 -265 65 0 65 0 0 285 0 285 310 0
310 0 0 393 0 392 -48 30 c-40 25 -59 30 -122 33 -57 2 -85 -2 -115 -16z m109
-94 c4 7 5 19 2 27 -8 21 80 -8 110 -36 25 -23 32 -49 14 -49 -5 0 -10 -5 -10
-11 0 -8 5 -7 15 1 24 20 30 4 30 -69 0 -61 -3 -71 -34 -110 -30 -38 -36 -41
-46 -27 -7 9 -16 16 -20 16 -4 0 -2 -7 5 -15 16 -20 11 -24 -34 -32 -30 -5
-35 -3 -31 10 4 8 2 18 -4 22 -7 3 -11 -2 -11 -14 0 -15 -6 -21 -22 -21 -34 0
-50 14 -41 36 6 17 5 17 -10 5 -15 -12 -20 -11 -38 5 -33 30 -49 69 -49 121 0
56 11 78 34 70 9 -4 16 -2 16 3 0 6 -7 10 -15 10 -22 0 -19 10 12 42 l27 28
14 -22 c13 -23 13 -23 7 4 -5 24 -2 28 27 36 30 8 33 6 38 -17 4 -18 8 -22 14
-13z"/>
<path d="M3485 1310 c-3 -5 -2 -10 4 -10 5 0 13 5 16 10 3 6 2 10 -4 10 -5 0
-13 -4 -16 -10z"/>
<path d="M3320 1273 c0 -6 21 -30 47 -52 l47 -42 -50 -52 -49 -52 51 49 c37
34 61 49 82 50 41 2 53 16 16 17 -16 1 -33 1 -38 0 -5 -1 -31 19 -58 46 -26
26 -48 42 -48 36z"/>
<path d="M3260 1180 c0 -5 5 -10 10 -10 6 0 10 5 10 10 0 6 -4 10 -10 10 -5 0
-10 -4 -10 -10z"/>
<path d="M3560 1180 c0 -5 5 -10 10 -10 6 0 10 5 10 10 0 6 -4 10 -10 10 -5 0
-10 -4 -10 -10z"/>
<path d="M3285 1110 c-3 -5 -1 -10 4 -10 6 0 11 5 11 10 0 6 -2 10 -4 10 -3 0
-8 -4 -11 -10z"/>
<path d="M3540 1110 c0 -5 5 -10 11 -10 5 0 7 5 4 10 -3 6 -8 10 -11 10 -2 0
-4 -4 -4 -10z"/>
<path d="M3584 449 c-3 -6 -1 -16 5 -22 8 -8 11 -5 11 11 0 24 -5 28 -16 11z"/>
</g>
</svg>
